<svg xmlns="http://www.w3.org/2000/svg" viewBox="0 0 1200 300"><defs><linearGradient id="b"><stop stop-color="#030504"/><stop offset="1" stop-color="#07110c"/></linearGradient></defs><rect width="1200" height="300" rx="22" fill="url(#b)"/><rect x="1" y="1" width="1198" height="298" rx="21" fill="none" stroke="#00e676" stroke-opacity=".22"/><g font-family="Inter,Segoe UI,Arial,sans-serif"><circle cx="58" cy="52" r="5" fill="#00e676"/><text x="76" y="58" font-size="15" font-weight="700" letter-spacing="3" fill="#8dffbd">ACTIVITY TELEMETRY</text><text x="58" y="104" font-size="30" font-weight="700" fill="#fff">BUILD → SHIP → ITERATE</text><text x="58" y="136" font-size="14" fill="#8fb6a0">Repository-native · scalable · no external graph dependency</text></g><g transform="translate(58 174)" fill="#00e676"><rect width="44" height="44" rx="7" opacity=".2"/><rect x="56" width="44" height="44" rx="7" opacity=".45"/><rect x="112" width="44" height="44" rx="7" opacity=".8"/><rect x="168" width="44" height="44" rx="7" opacity=".35"/><rect x="224" width="44" height="44" rx="7" opacity=".95"/><rect x="280" width="44" height="44" rx="7" opacity=".55"/><rect x="336" width="44" height="44" rx="7" opacity=".82"/><rect x="392" width="44" height="44" rx="7" opacity=".4"/><rect x="448" width="44" height="44" rx="7"/><rect x="504" width="44" height="44" rx="7" opacity=".6"/><rect x="560" width="44" height="44" rx="7" opacity=".9"/><rect x="616" width="44" height="44" rx="7" opacity=".45"/><rect x="672" width="44" height="44" rx="7" opacity=".75"/></g><g transform="translate(870 92)" font-family="Consolas,monospace" fill="#e4ffed"><text font-size="11" letter-spacing="2" fill="#729381">SIGNAL / ACTIVE</text><text y="42" font-size="13">OPEN SOURCE  ●</text><text y="74" font-size="13">AUTOMATION   ●</text><text y="106" font-size="13">AI SYSTEMS   ●</text><text y="150" font-size="11" fill="#00e676">LOCAL / STABLE</text></g></svg>